<svg width="20" height="20" viewBox="0 0 20 20" fill="none" xmlns="http://www.w3.org/2000/svg">
<g id="mdi:account">
<path id="Vector" d="M10 3.33334C10.8841 3.33334 11.7319 3.68453 12.357 4.30965C12.9822 4.93478 13.3333 5.78262 13.3333 6.66668C13.3333 7.55073 12.9822 8.39858 12.357 9.0237C11.7319 9.64882 10.8841 10 10 10C9.11595 10 8.26811 9.64882 7.64299 9.0237C7.01787 8.39858 6.66668 7.55073 6.66668 6.66668C6.66668 5.78262 7.01787 4.93478 7.64299 4.30965C8.26811 3.68453 9.11595 3.33334 10 3.33334ZM10 11.6667C13.6833 11.6667 16.6667 13.1583 16.6667 15V16.6667H3.33334V15C3.33334 13.1583 6.31668 11.6667 10 11.6667Z" fill="#303E65"/>
</g>
</svg>
