<svg width="51" height="50" viewBox="0 0 51 50" fill="none" xmlns="http://www.w3.org/2000/svg">
<path d="M0.5 12C0.5 5.37258 5.87258 0 12.5 0H38.5C45.1274 0 50.5 5.37258 50.5 12V38C50.5 44.6274 45.1274 50 38.5 50H12.5C5.87258 50 0.5 44.6274 0.5 38V12Z" fill="#E74C3C"/>
<path d="M17.54 36V13.8H26.54C28.18 13.8 29.58 14.09 30.74 14.67C31.92 15.25 32.82 16.05 33.44 17.07C34.08 18.09 34.4 19.27 34.4 20.61C34.4 22.07 34.03 23.35 33.29 24.45C32.55 25.53 31.5 26.32 30.14 26.82L34.97 36H29.84L25.43 27.45H22.16V36H17.54ZM26.48 17.79H22.16V23.67H26.48C27.5 23.67 28.3 23.39 28.88 22.83C29.46 22.27 29.75 21.58 29.75 20.76C29.75 19.92 29.46 19.22 28.88 18.66C28.3 18.08 27.5 17.79 26.48 17.79Z" fill="white"/>
</svg>
