<svg width="102" height="30" viewBox="0 0 102 30" fill="none" xmlns="http://www.w3.org/2000/svg">
<path d="M8.06665 15.8333L7.62665 16.2767C7.7437 16.3927 7.90184 16.4578 8.06665 16.4578C8.23147 16.4578 8.38961 16.3927 8.50665 16.2767L8.06665 15.8333ZM9.90665 14.8883C10.0245 14.7714 10.091 14.6125 10.0916 14.4465C10.0922 14.2806 10.0269 14.1211 9.90999 14.0033C9.8521 13.945 9.78328 13.8987 9.70748 13.8669C9.63167 13.8352 9.55036 13.8187 9.46818 13.8184C9.30221 13.8178 9.14279 13.8831 9.02499 14L9.90582 14.8875L9.90665 14.8883ZM7.10665 14C6.98831 13.8866 6.83014 13.8241 6.66621 13.8262C6.50229 13.8283 6.34575 13.8947 6.23032 14.0111C6.11489 14.1275 6.04982 14.2846 6.04914 14.4486C6.04845 14.6125 6.1122 14.7701 6.22665 14.8875L7.10665 14ZM20.5133 11.16C20.5552 11.2321 20.6111 11.2952 20.6778 11.3454C20.7444 11.3956 20.8204 11.4319 20.9013 11.4523C20.9822 11.4726 21.0664 11.4766 21.1488 11.4639C21.2313 11.4512 21.3104 11.4221 21.3814 11.3784C21.4524 11.3347 21.514 11.2772 21.5625 11.2093C21.611 11.1414 21.6453 11.0644 21.6636 10.983C21.6819 10.9017 21.6837 10.8174 21.6689 10.7353C21.6541 10.6532 21.623 10.5749 21.5775 10.505L20.5133 11.16ZM15.0658 6.87501C10.86 6.87501 7.44082 10.2592 7.44082 14.4442H8.69082C8.69082 10.9592 11.5408 8.12501 15.0658 8.12501V6.87501ZM7.44082 14.4442V15.8333H8.69082V14.4442H7.44082ZM8.50749 16.2775L9.90665 14.8883L9.02499 14L7.62499 15.3892L8.50582 16.2758L8.50749 16.2775ZM8.50749 15.39L7.10665 14L6.22582 14.8875L7.62582 16.2758L8.50582 15.3892L8.50749 15.39ZM21.5775 10.5067C20.8934 9.39509 19.9356 8.47754 18.7957 7.84172C17.6558 7.2059 16.3711 6.87306 15.0658 6.87501V8.12501C16.1577 8.12274 17.2327 8.40066 18.1865 8.93219C19.1403 9.46371 19.9417 10.2311 20.5142 11.1608L21.5783 10.5058L21.5775 10.5067ZM21.9283 14.1667L22.3675 13.7225C22.2505 13.607 22.0927 13.5422 21.9283 13.5422C21.7639 13.5422 21.6061 13.607 21.4892 13.7225L21.9283 14.1667ZM20.0833 15.1108C20.0249 15.1686 19.9785 15.2372 19.9466 15.3129C19.9148 15.3886 19.8982 15.4698 19.8977 15.5519C19.8968 15.7177 19.9617 15.8771 20.0783 15.995C20.1949 16.1129 20.3536 16.1797 20.5194 16.1806C20.6852 16.1816 20.8446 16.1166 20.9625 16L20.0833 15.1108ZM22.8942 16C22.9522 16.0592 23.0214 16.1063 23.0979 16.1385C23.1743 16.1707 23.2564 16.1874 23.3393 16.1876C23.4222 16.1877 23.5044 16.1714 23.5809 16.1395C23.6575 16.1076 23.7269 16.0608 23.7852 16.0018C23.8435 15.9428 23.8894 15.8728 23.9204 15.7958C23.9513 15.7189 23.9667 15.6366 23.9655 15.5537C23.9643 15.4707 23.9466 15.3889 23.9135 15.3128C23.8804 15.2368 23.8324 15.1682 23.7725 15.1108L22.8942 16ZM9.43165 18.8383C9.34457 18.6972 9.205 18.5965 9.04364 18.5583C8.88228 18.5201 8.71235 18.5475 8.57124 18.6346C8.43012 18.7217 8.32937 18.8612 8.29116 19.0226C8.25295 19.184 8.28041 19.3539 8.36749 19.495L9.43165 18.8383ZM14.9025 23.125C19.1208 23.125 22.5525 19.7433 22.5525 15.5558H21.3025C21.3025 19.0392 18.4442 21.875 14.9025 21.875V23.125ZM22.5525 15.5558V14.1667H21.3025V15.5558H22.5525ZM21.4892 13.7225L20.0833 15.1108L20.9625 16L22.3675 14.6108L21.4892 13.7225ZM21.4892 14.6108L22.8942 16L23.7725 15.1108L22.3675 13.7225L21.4892 14.6108ZM8.36665 19.4942C9.05534 20.607 10.0175 21.5249 11.1614 22.1604C12.3054 22.796 13.593 23.1281 14.9017 23.125V21.875C13.8063 21.8781 12.7285 21.6006 11.7708 21.069C10.8132 20.5375 10.0084 19.7695 9.43165 18.8383L8.36749 19.495L8.36665 19.4942Z" fill="#E74C3C"/>
<path d="M38.67 20.14C37.858 20.14 37.144 19.9907 36.528 19.692C35.912 19.384 35.3987 18.978 34.988 18.474C34.5867 17.9607 34.2833 17.3913 34.078 16.766C33.8727 16.1313 33.77 15.4827 33.77 14.82C33.77 14.1573 33.8727 13.5087 34.078 12.874C34.2833 12.2393 34.5867 11.67 34.988 11.166C35.3987 10.6527 35.912 10.2467 36.528 9.948C37.144 9.64933 37.858 9.5 38.67 9.5C39.342 9.5 39.916 9.58867 40.392 9.766C40.8773 9.934 41.2787 10.1533 41.596 10.424C41.9227 10.6947 42.184 10.984 42.38 11.292C42.5853 11.6 42.7347 11.8893 42.828 12.16C42.9307 12.4307 42.996 12.6547 43.024 12.832C43.0613 13 43.08 13.084 43.08 13.084H41.708C41.708 13.084 41.6893 13.0093 41.652 12.86C41.6147 12.7013 41.54 12.51 41.428 12.286C41.316 12.0527 41.148 11.8193 40.924 11.586C40.7 11.3527 40.406 11.1613 40.042 11.012C39.678 10.8533 39.2253 10.774 38.684 10.774C38.096 10.774 37.5827 10.8907 37.144 11.124C36.7053 11.348 36.3367 11.656 36.038 12.048C35.7487 12.4307 35.5293 12.8647 35.38 13.35C35.24 13.826 35.17 14.316 35.17 14.82C35.17 15.324 35.24 15.8187 35.38 16.304C35.5293 16.78 35.7487 17.214 36.038 17.606C36.3367 17.9887 36.7053 18.2967 37.144 18.53C37.5827 18.754 38.096 18.866 38.684 18.866C39.2253 18.866 39.678 18.7867 40.042 18.628C40.406 18.4693 40.7 18.278 40.924 18.054C41.148 17.8207 41.316 17.592 41.428 17.368C41.54 17.1347 41.6147 16.9387 41.652 16.78C41.6893 16.6213 41.708 16.542 41.708 16.542H43.08C43.08 16.542 43.0613 16.6307 43.024 16.808C42.996 16.976 42.9307 17.2 42.828 17.48C42.7347 17.7507 42.5853 18.04 42.38 18.348C42.184 18.6467 41.9227 18.936 41.596 19.216C41.2787 19.4867 40.8773 19.7107 40.392 19.888C39.916 20.056 39.342 20.14 38.67 20.14ZM46.1795 11.516L47.8735 9.178H49.0075L50.7015 11.516H49.4975L48.4335 10.018L47.3835 11.516H46.1795ZM48.1255 12.44C48.5921 12.44 48.9841 12.5147 49.3015 12.664C49.6188 12.8133 49.8755 12.9907 50.0715 13.196C50.2675 13.392 50.4168 13.5787 50.5195 13.756H50.6035V12.58H51.9335V20H50.6035V18.824H50.5195C50.4168 19.0013 50.2675 19.1927 50.0715 19.398C49.8755 19.6033 49.6188 19.7807 49.3015 19.93C48.9841 20.07 48.5921 20.14 48.1255 20.14C47.5655 20.14 47.0755 20.0327 46.6555 19.818C46.2355 19.594 45.8855 19.3 45.6055 18.936C45.3255 18.5627 45.1155 18.1473 44.9755 17.69C44.8355 17.2327 44.7655 16.766 44.7655 16.29C44.7655 15.814 44.8355 15.3473 44.9755 14.89C45.1155 14.4327 45.3255 14.022 45.6055 13.658C45.8855 13.2847 46.2355 12.9907 46.6555 12.776C47.0755 12.552 47.5655 12.44 48.1255 12.44ZM48.3495 13.574C47.8548 13.574 47.4395 13.7093 47.1035 13.98C46.7675 14.2413 46.5155 14.5773 46.3475 14.988C46.1888 15.3987 46.1095 15.8327 46.1095 16.29C46.1095 16.738 46.1888 17.172 46.3475 17.592C46.5155 18.0027 46.7675 18.3433 47.1035 18.614C47.4395 18.8753 47.8548 19.006 48.3495 19.006C48.8441 19.006 49.2548 18.8753 49.5815 18.614C49.9175 18.3433 50.1648 18.0027 50.3235 17.592C50.4915 17.172 50.5755 16.738 50.5755 16.29C50.5755 15.8327 50.4915 15.3987 50.3235 14.988C50.1648 14.5773 49.9175 14.2413 49.5815 13.98C49.2548 13.7093 48.8441 13.574 48.3495 13.574ZM48.4335 23.178C48.1721 23.178 47.9528 23.0847 47.7755 22.898C47.6075 22.7207 47.5235 22.5107 47.5235 22.268C47.5235 22.016 47.6075 21.8013 47.7755 21.624C47.9528 21.4467 48.1721 21.358 48.4335 21.358C48.6948 21.358 48.9095 21.4467 49.0775 21.624C49.2548 21.8013 49.3435 22.016 49.3435 22.268C49.3435 22.52 49.2548 22.7347 49.0775 22.912C48.9095 23.0893 48.6948 23.178 48.4335 23.178ZM54.122 22.744V12.58H55.452V13.756H55.536C55.648 13.5787 55.7973 13.3873 55.984 13.182C56.18 12.9767 56.4366 12.804 56.754 12.664C57.0713 12.5147 57.4633 12.44 57.93 12.44C58.49 12.44 58.98 12.552 59.4 12.776C59.82 12.9907 60.17 13.2847 60.45 13.658C60.73 14.022 60.94 14.4327 61.08 14.89C61.22 15.3473 61.29 15.814 61.29 16.29C61.29 16.766 61.22 17.2327 61.08 17.69C60.94 18.1473 60.73 18.5627 60.45 18.936C60.17 19.3 59.82 19.594 59.4 19.818C58.98 20.0327 58.49 20.14 57.93 20.14C57.4633 20.14 57.0713 20.0653 56.754 19.916C56.4366 19.7667 56.18 19.5893 55.984 19.384C55.7973 19.1787 55.648 18.992 55.536 18.824H55.452V22.744H54.122ZM55.48 16.29C55.48 16.738 55.5593 17.172 55.718 17.592C55.886 18.0027 56.1333 18.3433 56.46 18.614C56.796 18.8753 57.2113 19.006 57.706 19.006C58.21 19.006 58.6253 18.8753 58.952 18.614C59.288 18.3433 59.5353 18.0027 59.694 17.592C59.862 17.172 59.946 16.738 59.946 16.29C59.946 15.8327 59.862 15.3987 59.694 14.988C59.5353 14.5773 59.288 14.2413 58.952 13.98C58.6253 13.7093 58.21 13.574 57.706 13.574C57.2113 13.574 56.796 13.7093 56.46 13.98C56.1333 14.2413 55.886 14.5773 55.718 14.988C55.5593 15.3987 55.48 15.8327 55.48 16.29ZM66.3413 20V12.58H67.6713V13.658H67.7553C67.8207 13.546 67.928 13.392 68.0773 13.196C68.236 13 68.46 12.8273 68.7493 12.678C69.0387 12.5193 69.4027 12.44 69.8413 12.44C70.3827 12.44 70.8447 12.566 71.2273 12.818C71.61 13.0607 71.8993 13.392 72.0953 13.812C72.3007 14.232 72.4033 14.7033 72.4033 15.226V20H71.0733V15.31C71.0733 14.8153 70.9333 14.4047 70.6533 14.078C70.3827 13.7513 69.986 13.588 69.4633 13.588C69.0433 13.588 68.7027 13.6953 68.4413 13.91C68.18 14.1153 67.984 14.3907 67.8533 14.736C67.732 15.072 67.6713 15.4313 67.6713 15.814V20H66.3413ZM74.5067 20V9.36H75.8367V13.658H75.9207C75.9861 13.546 76.0934 13.392 76.2427 13.196C76.4014 13 76.6254 12.8273 76.9147 12.678C77.2041 12.5193 77.5681 12.44 78.0067 12.44C78.5481 12.44 79.0101 12.566 79.3927 12.818C79.7754 13.0607 80.0647 13.392 80.2607 13.812C80.4661 14.232 80.5687 14.7033 80.5687 15.226V20H79.2387V15.31C79.2387 14.8153 79.0987 14.4047 78.8187 14.078C78.5481 13.7513 78.1514 13.588 77.6287 13.588C77.2087 13.588 76.8681 13.6953 76.6067 13.91C76.3454 14.1153 76.1494 14.3907 76.0187 14.736C75.8974 15.072 75.8367 15.4313 75.8367 15.814V20H74.5067ZM83.8728 11.516L85.5668 9.178H86.7008L88.3948 11.516H87.1908L86.1268 10.018L85.0768 11.516H83.8728ZM85.8188 12.44C86.2855 12.44 86.6775 12.5147 86.9948 12.664C87.3122 12.8133 87.5688 12.9907 87.7648 13.196C87.9608 13.392 88.1102 13.5787 88.2128 13.756H88.2968V12.58H89.6268V20H88.2968V18.824H88.2128C88.1102 19.0013 87.9608 19.1927 87.7648 19.398C87.5688 19.6033 87.3122 19.7807 86.9948 19.93C86.6775 20.07 86.2855 20.14 85.8188 20.14C85.2588 20.14 84.7688 20.0327 84.3488 19.818C83.9288 19.594 83.5788 19.3 83.2988 18.936C83.0188 18.5627 82.8088 18.1473 82.6688 17.69C82.5288 17.2327 82.4588 16.766 82.4588 16.29C82.4588 15.814 82.5288 15.3473 82.6688 14.89C82.8088 14.4327 83.0188 14.022 83.2988 13.658C83.5788 13.2847 83.9288 12.9907 84.3488 12.776C84.7688 12.552 85.2588 12.44 85.8188 12.44ZM86.0428 13.574C85.5482 13.574 85.1328 13.7093 84.7968 13.98C84.4608 14.2413 84.2088 14.5773 84.0408 14.988C83.8822 15.3987 83.8028 15.8327 83.8028 16.29C83.8028 16.738 83.8822 17.172 84.0408 17.592C84.2088 18.0027 84.4608 18.3433 84.7968 18.614C85.1328 18.8753 85.5482 19.006 86.0428 19.006C86.5375 19.006 86.9482 18.8753 87.2748 18.614C87.6108 18.3433 87.8582 18.0027 88.0168 17.592C88.1848 17.172 88.2688 16.738 88.2688 16.29C88.2688 15.8327 88.1848 15.3987 88.0168 14.988C87.8582 14.5773 87.6108 14.2413 87.2748 13.98C86.9482 13.7093 86.5375 13.574 86.0428 13.574ZM86.1268 23.178C85.8655 23.178 85.6462 23.0847 85.4688 22.898C85.3008 22.7207 85.2168 22.5107 85.2168 22.268C85.2168 22.016 85.3008 21.8013 85.4688 21.624C85.6462 21.4467 85.8655 21.358 86.1268 21.358C86.3882 21.358 86.6028 21.4467 86.7708 21.624C86.9482 21.8013 87.0368 22.016 87.0368 22.268C87.0368 22.52 86.9482 22.7347 86.7708 22.912C86.6028 23.0893 86.3882 23.178 86.1268 23.178ZM94.5519 20.14C93.7865 20.14 93.2079 19.944 92.8159 19.552C92.4332 19.16 92.2419 18.6093 92.2419 17.9V13.672H90.9119V12.58H92.2419V10.718H93.5719V12.58H95.3779V13.672H93.5719V17.9C93.5719 18.2733 93.6745 18.5487 93.8799 18.726C94.0852 18.894 94.3839 18.978 94.7759 18.978C94.9812 18.978 95.1772 18.964 95.3639 18.936C95.5505 18.908 95.6439 18.894 95.6439 18.894V20.028C95.6439 20.028 95.5365 20.0467 95.3219 20.084C95.1072 20.1213 94.8505 20.14 94.5519 20.14Z" fill="#E74C3C"/>
<rect x="1" y="1" width="100" height="28" rx="4" stroke="#E74C3C" stroke-width="0.5"/>
</svg>
