<svg width="400" height="280" viewBox="0 0 400 280" fill="none" xmlns="http://www.w3.org/2000/svg">
<g clip-path="url(#clip0_30_185)">
<path d="M337.732 194.135C337.318 193.678 337.009 193.135 336.827 192.545C336.645 191.955 336.595 191.333 336.68 190.722C336.765 190.111 336.983 189.526 337.319 189.008C337.655 188.49 338.1 188.052 338.623 187.725L335.275 173.103L342.579 175.834L344.639 189.3C345.13 190.216 345.269 191.279 345.029 192.29C344.788 193.301 344.185 194.188 343.334 194.784C342.482 195.38 341.442 195.643 340.409 195.523C339.377 195.404 338.424 194.91 337.732 194.135Z" fill="#FFB8B8"/>
<path d="M337.226 182.531L330.806 170.123L331.674 138.881L332.087 139.75C332.567 140.762 343.833 164.6 343.029 172.58L344.317 179.873L337.226 182.531Z" fill="#3F3D56"/>
<path d="M333.04 274.225H338.189L340.638 254.377L333.039 254.377L333.04 274.225Z" fill="#FFB8B8"/>
<path d="M331.727 272.545L341.866 272.545H341.867C343.58 272.545 345.223 273.225 346.435 274.437C347.647 275.648 348.328 277.29 348.328 279.003V279.213L331.727 279.214L331.727 272.545Z" fill="#2F2E41"/>
<path d="M282.171 270.315L287.132 271.693L294.812 253.226L287.491 251.191L282.171 270.315Z" fill="#FFB8B8"/>
<path d="M281.356 268.344L291.125 271.059L291.125 271.059C292.776 271.518 294.177 272.614 295.02 274.105C295.863 275.597 296.078 277.361 295.619 279.012L295.563 279.214L279.569 274.769L281.356 268.344Z" fill="#2F2E41"/>
<path d="M327.907 266.487L317.517 192.127L295.075 266.067L277.43 260.044L302.72 161.037L302.886 161.025L329.38 159.183L348.521 260.478L327.907 266.487Z" fill="#2F2E41"/>
<path d="M325.159 125.997C325.159 125.997 315.501 120.96 302.483 123.059C302.483 123.059 295.554 139.768 302.483 146.419L304.372 163.144C304.372 163.144 322.01 173.638 327.889 161.465L327.049 147.614C327.049 147.614 331.248 140.971 327.889 136.107C325.875 133.136 324.914 129.577 325.159 125.997Z" fill="#E74C3C"/>
<path d="M326.383 202.072L328.078 166.911L323.28 125.083L323.5 125.05C329.794 124.102 331.813 134.939 331.895 135.401L342.85 197.308L326.383 202.072Z" fill="#3F3D56"/>
<path d="M305.025 202.438L285.659 200.288L285.664 200.076C285.733 197.211 287.4 129.834 292.07 125.062C296.769 120.261 305.634 122.338 306.009 122.43L306.196 122.475L304.603 150.985L305.025 202.438Z" fill="#3F3D56"/>
<path d="M308.592 162.169C308.005 162.361 307.384 162.423 306.771 162.349C306.158 162.275 305.569 162.068 305.044 161.742C304.52 161.416 304.074 160.979 303.737 160.462C303.4 159.945 303.181 159.361 303.094 158.75L288.368 155.866L293.832 150.305L306.979 153.896C308.016 153.819 309.044 154.125 309.871 154.755C310.697 155.385 311.263 156.297 311.462 157.317C311.661 158.336 311.478 159.393 310.949 160.288C310.42 161.182 309.582 161.851 308.592 162.169Z" fill="#FFB8B8"/>
<path d="M300.733 158.793L295.935 157.762C288.851 159.892 276.486 152.395 271.489 149.065C270.549 148.439 270.244 147.197 270.582 145.376C271.082 142.829 272.487 140.548 274.538 138.954L292.138 125.005L296.581 124.263L297.9 131.737L286.687 143.776L303.194 152.757L300.733 158.793Z" fill="#3F3D56"/>
<path d="M298.836 116.732V107.04C298.836 102.94 300.465 99.0074 303.366 96.108C306.267 93.2086 310.201 91.5798 314.303 91.5798C318.405 91.5798 322.34 93.2086 325.24 96.108C328.141 99.0074 329.771 102.94 329.771 107.04V116.732C329.77 117.282 329.551 117.81 329.162 118.199C328.772 118.589 328.244 118.808 327.693 118.808H300.913C300.363 118.808 299.834 118.589 299.445 118.199C299.055 117.81 298.836 117.282 298.836 116.732Z" fill="#2F2E41"/>
<path d="M313.682 118.713C319.945 118.713 325.022 113.638 325.022 107.378C325.022 101.118 319.945 96.0431 313.682 96.0431C307.419 96.0431 302.341 101.118 302.341 107.378C302.341 113.638 307.419 118.713 313.682 118.713Z" fill="#FFB8B8"/>
<path d="M302.03 107.334C301.922 107.209 301.841 107.063 301.795 106.904C301.748 106.745 301.736 106.578 301.76 106.415L303.103 97.0646C303.13 96.8744 303.203 96.6938 303.317 96.5391C303.432 96.3845 303.582 96.2607 303.756 96.179C310.613 92.9715 317.566 92.9674 324.423 96.1669C324.605 96.253 324.761 96.3849 324.877 96.5496C324.992 96.7144 325.063 96.9062 325.082 97.1065L325.979 106.469C325.994 106.629 325.976 106.79 325.925 106.943C325.875 107.095 325.793 107.236 325.684 107.355C325.576 107.474 325.444 107.569 325.297 107.634C325.15 107.699 324.991 107.732 324.83 107.732H322.556C322.336 107.732 322.121 107.669 321.936 107.551C321.751 107.433 321.603 107.265 321.51 107.067L320.528 104.965C320.465 104.829 320.359 104.717 320.226 104.646C320.093 104.576 319.941 104.55 319.793 104.574C319.645 104.597 319.508 104.668 319.403 104.776C319.299 104.884 319.232 105.023 319.214 105.172L319.02 106.721C318.984 107 318.849 107.257 318.638 107.443C318.427 107.629 318.156 107.732 317.874 107.732H302.902C302.737 107.732 302.573 107.697 302.423 107.628C302.272 107.56 302.138 107.459 302.03 107.334Z" fill="#2F2E41"/>
<path d="M254.406 18.6292H0V176.977H254.406V18.6292Z" fill="#E6E6E6"/>
<path d="M63.6545 49.1344H17.0599V79.4068H63.6545V49.1344Z" fill="white"/>
<path d="M121.552 49.1344H74.9573V79.4068H121.552V49.1344Z" fill="white"/>
<path d="M179.449 49.1344H132.854V79.4068H179.449V49.1344Z" fill="white"/>
<path d="M237.346 49.1344H190.752V79.4068H237.346V49.1344Z" fill="white"/>
<path d="M63.6545 91.9814H17.0599V122.254H63.6545V91.9814Z" fill="white"/>
<path d="M121.552 91.9814H74.9573V122.254H121.552V91.9814Z" fill="white"/>
<path d="M179.449 91.9814H132.854V122.254H179.449V91.9814Z" fill="white"/>
<path d="M237.346 91.9814H190.752V122.254H237.346V91.9814Z" fill="white"/>
<path d="M63.6545 134.828H17.0599V165.101H63.6545V134.828Z" fill="white"/>
<path d="M121.552 134.828H74.9573V165.101H121.552V134.828Z" fill="white"/>
<path d="M179.449 134.828H132.854V165.101H179.449V134.828Z" fill="white"/>
<path d="M237.346 134.828H190.752V165.101H237.346V134.828Z" fill="white"/>
<path d="M66.6302 37.2583C70.4902 37.2583 73.6194 34.1306 73.6194 30.2724C73.6194 26.4141 70.4902 23.2864 66.6302 23.2864C62.7702 23.2864 59.641 26.4141 59.641 30.2724C59.641 34.1306 62.7702 37.2583 66.6302 37.2583Z" fill="white"/>
<path d="M182.185 37.2583C186.045 37.2583 189.174 34.1306 189.174 30.2724C189.174 26.4141 186.045 23.2864 182.185 23.2864C178.325 23.2864 175.196 26.4141 175.196 30.2724C175.196 34.1306 178.325 37.2583 182.185 37.2583Z" fill="white"/>
<path d="M69.4259 0H63.8346V32.1353H69.4259V0Z" fill="#E6E6E6"/>
<path d="M184.98 0H179.389V32.1353H184.98V0Z" fill="#E6E6E6"/>
<path d="M224.586 64.2706C224.583 66.7997 223.668 69.243 222.008 71.1516C220.347 73.0602 218.054 74.3058 215.548 74.6595C213.043 75.0133 210.494 74.4515 208.37 73.0773C206.245 71.7031 204.689 69.6088 203.985 67.1793C203.282 64.7498 203.48 62.1482 204.542 59.8526C205.604 57.5571 207.459 55.7216 209.766 54.6836C212.074 53.6456 214.678 53.4748 217.102 54.2025C219.525 54.9301 221.604 56.5075 222.957 58.6446C224.023 60.3277 224.588 62.2789 224.586 64.2706Z" fill="#E74C3C"/>
<path d="M222.957 58.6447L212.585 69.0099C211.934 68.0012 208.302 63.3132 208.302 63.3132C208.767 62.843 209.264 62.4047 209.788 62.0015L212.8 66.0151L221.743 57.0764C222.196 57.5596 222.603 58.0848 222.957 58.6447Z" fill="white"/>
<path d="M108.791 107.118C108.789 109.647 107.873 112.09 106.213 113.999C104.553 115.907 102.259 117.153 99.7539 117.507C97.2484 117.86 94.6994 117.299 92.5752 115.924C90.451 114.55 88.8942 112.456 88.191 110.026C87.4878 107.597 87.6854 104.995 88.7474 102.7C89.8094 100.404 91.6645 98.5687 93.9719 97.5307C96.2793 96.4927 98.884 96.3219 101.307 97.0496C103.731 97.7772 105.81 99.3546 107.163 101.492C108.228 103.175 108.793 105.126 108.791 107.118Z" fill="#E74C3C"/>
<path d="M107.163 101.492L96.7909 111.857C96.139 110.848 92.5072 106.16 92.5072 106.16C92.9726 105.69 93.4693 105.252 93.9938 104.849L97.0054 108.862L105.948 99.9235C106.402 100.407 106.808 100.932 107.163 101.492Z" fill="white"/>
<path d="M50.8939 107.118C50.8915 109.647 49.9761 112.09 48.3158 113.999C46.6555 115.907 44.362 117.153 41.8565 117.507C39.351 117.861 36.802 117.299 34.6778 115.924C32.5535 114.55 30.9968 112.456 30.2936 110.026C29.5904 107.597 29.7879 104.995 30.8499 102.7C31.9119 100.404 33.7671 98.5687 36.0745 97.5307C38.3819 96.4927 40.9866 96.3219 43.4099 97.0496C45.8332 97.7773 47.9125 99.3546 49.2655 101.492C50.3311 103.175 50.8958 105.126 50.8939 107.118Z" fill="#E74C3C"/>
<path d="M49.2656 101.492L38.8936 111.857C38.2418 110.848 34.61 106.16 34.61 106.16C35.0754 105.69 35.5721 105.252 36.0966 104.849L39.1082 108.862L48.051 99.9235C48.5045 100.407 48.9112 100.932 49.2656 101.492Z" fill="white"/>
<path d="M399.538 279.551H223.624C223.501 279.551 223.384 279.502 223.297 279.415C223.211 279.329 223.162 279.211 223.162 279.089C223.162 278.967 223.211 278.849 223.297 278.763C223.384 278.676 223.501 278.628 223.624 278.628H399.538C399.661 278.628 399.778 278.676 399.865 278.763C399.951 278.849 400 278.967 400 279.089C400 279.211 399.951 279.329 399.865 279.415C399.778 279.502 399.661 279.551 399.538 279.551Z" fill="#3F3D56"/>
</g>
<defs>
<clipPath id="clip0_30_185">
<rect width="400" height="279.551" fill="white"/>
</clipPath>
</defs>
</svg>
