<svg width="145" height="50" viewBox="0 0 145 50" fill="none" xmlns="http://www.w3.org/2000/svg">
<path d="M0 12C0 5.37258 5.37258 0 12 0H38C44.6274 0 50 5.37258 50 12V38C50 44.6274 44.6274 50 38 50H12C5.37258 50 0 44.6274 0 38V12Z" fill="#E74C3C"/>
<path d="M17.04 36V13.8H26.04C27.68 13.8 29.08 14.09 30.24 14.67C31.42 15.25 32.32 16.05 32.94 17.07C33.58 18.09 33.9 19.27 33.9 20.61C33.9 22.07 33.53 23.35 32.79 24.45C32.05 25.53 31 26.32 29.64 26.82L34.47 36H29.34L24.93 27.45H21.66V36H17.04ZM25.98 17.79H21.66V23.67H25.98C27 23.67 27.8 23.39 28.38 22.83C28.96 22.27 29.25 21.58 29.25 20.76C29.25 19.92 28.96 19.22 28.38 18.66C27.8 18.08 27 17.79 25.98 17.79Z" fill="white"/>
<path d="M58.26 22L61.4 7.2H66.7C67.8333 7.2 68.7667 7.4 69.5 7.8C70.2467 8.2 70.8 8.72 71.16 9.36C71.5333 10 71.72 10.68 71.72 11.4C71.72 12.0533 71.5667 12.7 71.26 13.34C70.9667 13.98 70.5267 14.5467 69.94 15.04C69.3667 15.52 68.6533 15.8667 67.8 16.08L69.76 22H66.6L64.76 16.3H62.56L61.34 22H58.26ZM66.6 9.86H63.92L63.08 13.78H66.18C66.7133 13.78 67.16 13.6733 67.52 13.46C67.8933 13.2467 68.1733 12.9733 68.36 12.64C68.5467 12.3067 68.64 11.9667 68.64 11.62C68.64 11.1667 68.4733 10.76 68.14 10.4C67.8067 10.04 67.2933 9.86 66.6 9.86ZM76.5458 10C76.0124 10 75.5791 9.83333 75.2458 9.5C74.9124 9.15333 74.7458 8.74 74.7458 8.26C74.7458 7.78 74.9124 7.37333 75.2458 7.04C75.5791 6.69333 76.0124 6.52 76.5458 6.52C77.0658 6.52 77.4924 6.69333 77.8258 7.04C78.1724 7.37333 78.3458 7.78 78.3458 8.26C78.3458 8.74 78.1724 9.15333 77.8258 9.5C77.4924 9.83333 77.0658 10 76.5458 10ZM72.1058 22L74.3658 11.4H77.4058L75.1458 22H72.1058ZM77.9475 22L81.1875 6.8H84.2275L82.3475 15.62L86.6275 11.4H90.4275L85.0875 16.54L88.3675 22H84.9475L82.0475 17.08L80.9875 22H77.9475ZM90.3498 22L93.5898 6.8H96.6298L94.7498 15.62L99.0298 11.4H102.83L97.4898 16.54L100.77 22H97.3498L94.4498 17.08L93.3898 22H90.3498ZM107.374 22.2C106.24 22.2 105.314 21.9733 104.594 21.52C103.874 21.0667 103.34 20.4733 102.994 19.74C102.647 19.0067 102.474 18.22 102.474 17.38C102.474 16.6333 102.6 15.9 102.854 15.18C103.12 14.4467 103.507 13.78 104.014 13.18C104.534 12.58 105.167 12.1 105.914 11.74C106.674 11.38 107.547 11.2 108.534 11.2C109.494 11.2 110.287 11.38 110.914 11.74C111.554 12.0867 112.047 12.5533 112.394 13.14C112.74 13.7267 112.954 14.3667 113.034 15.06C113.127 15.7533 113.107 16.4333 112.974 17.1L112.894 17.5H105.474C105.487 18.22 105.667 18.8067 106.014 19.26C106.36 19.7 106.88 19.92 107.574 19.92C107.987 19.92 108.327 19.8533 108.594 19.72C108.874 19.5867 109.094 19.4333 109.254 19.26C109.414 19.0867 109.527 18.9333 109.594 18.8C109.674 18.6533 109.714 18.58 109.714 18.58H112.554C112.554 18.58 112.507 18.7067 112.414 18.96C112.32 19.2 112.16 19.5 111.934 19.86C111.707 20.22 111.394 20.58 110.994 20.94C110.607 21.3 110.114 21.6 109.514 21.84C108.914 22.08 108.2 22.2 107.374 22.2ZM105.754 15.66H110.314C110.394 15.0867 110.274 14.58 109.954 14.14C109.634 13.7 109.12 13.48 108.414 13.48C107.747 13.48 107.18 13.6933 106.714 14.12C106.26 14.5333 105.94 15.0467 105.754 15.66ZM118.46 10C117.927 10 117.493 9.83333 117.16 9.5C116.827 9.15333 116.66 8.74 116.66 8.26C116.66 7.78 116.827 7.37333 117.16 7.04C117.493 6.69333 117.927 6.52 118.46 6.52C118.98 6.52 119.407 6.69333 119.74 7.04C120.087 7.37333 120.26 7.78 120.26 8.26C120.26 8.74 120.087 9.15333 119.74 9.5C119.407 9.83333 118.98 10 118.46 10ZM114.02 22L116.28 11.4H119.32L117.06 22H114.02ZM58.26 42L61.4 27.2H71.48L70.92 29.88H63.92L63.1 33.76H69.18L68.62 36.34H62.54L61.34 42H58.26ZM74.04 42.2C73.0267 42.2 72.28 41.84 71.8 41.12C71.32 40.3867 71.2133 39.4 71.48 38.16L72.9 31.4H75.96L74.58 37.94C74.46 38.5 74.5067 38.9333 74.72 39.24C74.9333 39.5467 75.2867 39.7 75.78 39.7C76.42 39.7 76.9267 39.4733 77.3 39.02C77.6867 38.5667 77.94 38.04 78.06 37.44L79.34 31.4H82.4L80.16 42H77.1L77.42 40.5H77.3C76.98 40.9133 76.5533 41.3 76.02 41.66C75.4867 42.02 74.8267 42.2 74.04 42.2ZM82.6936 42L85.9336 26.8H88.9736L87.0936 35.62L91.3736 31.4H95.1736L89.8336 36.54L93.1136 42H89.6936L86.7936 37.08L85.7336 42H82.6936ZM98.3759 42.2C97.3626 42.2 96.6159 41.84 96.1359 41.12C95.6559 40.3867 95.5493 39.4 95.8159 38.16L97.2359 31.4H100.296L98.9159 37.94C98.7959 38.5 98.8426 38.9333 99.0559 39.24C99.2693 39.5467 99.6226 39.7 100.116 39.7C100.756 39.7 101.263 39.4733 101.636 39.02C102.023 38.5667 102.276 38.04 102.396 37.44L103.676 31.4H106.736L104.496 42H101.436L101.756 40.5H101.636C101.316 40.9133 100.889 41.3 100.356 41.66C99.8226 42.02 99.1626 42.2 98.3759 42.2ZM112.686 42.2C111.566 42.2 110.646 41.9733 109.926 41.52C109.206 41.0667 108.666 40.48 108.306 39.76C107.959 39.0267 107.786 38.2467 107.786 37.42C107.786 36.6867 107.919 35.9533 108.186 35.22C108.452 34.4867 108.846 33.82 109.366 33.22C109.899 32.6067 110.546 32.12 111.306 31.76C112.066 31.3867 112.946 31.2 113.946 31.2C115.052 31.2 115.966 31.4267 116.686 31.88C117.406 32.3333 117.946 32.9267 118.306 33.66C118.666 34.38 118.846 35.1533 118.846 35.98C118.846 36.7267 118.706 37.4667 118.426 38.2C118.159 38.9333 117.759 39.6 117.226 40.2C116.706 40.8 116.066 41.2867 115.306 41.66C114.546 42.02 113.672 42.2 112.686 42.2ZM112.826 39.72C113.439 39.72 113.959 39.54 114.386 39.18C114.826 38.8067 115.166 38.34 115.406 37.78C115.646 37.22 115.766 36.64 115.766 36.04C115.766 35.4133 115.606 34.8667 115.286 34.4C114.966 33.92 114.459 33.68 113.766 33.68C113.166 33.68 112.646 33.8667 112.206 34.24C111.766 34.6 111.426 35.06 111.186 35.62C110.946 36.18 110.826 36.76 110.826 37.36C110.826 37.9867 110.986 38.54 111.306 39.02C111.626 39.4867 112.132 39.72 112.826 39.72ZM119.92 42L123.16 26.8H126.2L124.32 35.62L128.6 31.4H132.4L127.06 36.54L130.34 42H126.92L124.02 37.08L122.96 42H119.92ZM137.464 31.2C138.024 31.2 138.497 31.28 138.884 31.44C139.271 31.5867 139.577 31.7667 139.804 31.98C140.044 32.18 140.224 32.38 140.344 32.58C140.464 32.7667 140.544 32.9067 140.584 33H140.724L141.064 31.4H144.124L141.884 42H138.844L139.104 40.7H138.964C138.964 40.7 138.911 40.78 138.804 40.94C138.697 41.0867 138.524 41.26 138.284 41.46C138.044 41.6467 137.731 41.82 137.344 41.98C136.971 42.1267 136.504 42.2 135.944 42.2C135.051 42.2 134.311 41.9867 133.724 41.56C133.151 41.1333 132.717 40.58 132.424 39.9C132.144 39.2067 132.004 38.46 132.004 37.66C132.004 36.9 132.124 36.14 132.364 35.38C132.604 34.62 132.957 33.9267 133.424 33.3C133.891 32.66 134.464 32.1533 135.144 31.78C135.824 31.3933 136.597 31.2 137.464 31.2ZM138.064 33.66C137.437 33.66 136.897 33.8533 136.444 34.24C135.991 34.6133 135.644 35.0867 135.404 35.66C135.164 36.2333 135.044 36.8 135.044 37.36C135.044 38 135.204 38.56 135.524 39.04C135.857 39.5067 136.377 39.74 137.084 39.74C137.697 39.74 138.231 39.5533 138.684 39.18C139.137 38.7933 139.484 38.32 139.724 37.76C139.964 37.1867 140.084 36.6133 140.084 36.04C140.084 35.4 139.917 34.8467 139.584 34.38C139.264 33.9 138.757 33.66 138.064 33.66Z" fill="#E74C3C"/>
</svg>
